<?xml version="1.0" standalone="no"?>
<!DOCTYPE svg PUBLIC "-//W3C//DTD SVG 20010904//EN"
 "http://www.w3.org/TR/2001/REC-SVG-20010904/DTD/svg10.dtd">
<svg version="1.0" xmlns="http://www.w3.org/2000/svg"
 width="746.000000pt" height="751.000000pt" viewBox="0 0 746.000000 751.000000"
 preserveAspectRatio="xMidYMid meet">
<metadata>
Created by potrace 1.15, written by Peter Selinger 2001-2017
</metadata>
<g transform="translate(0.000000,751.000000) scale(0.100000,-0.100000)"
fill="#000000" stroke="none">
<path d="M3490 7284 c-623 -55 -1209 -263 -1720 -612 -335 -229 -693 -587
-922 -922 -312 -457 -503 -950 -590 -1523 -20 -126 -22 -183 -22 -492 1 -377
9 -464 69 -745 150 -691 497 -1312 1006 -1805 547 -528 1206 -850 1982 -967
124 -19 185 -22 487 -22 302 0 363 3 487 22 625 94 1154 312 1638 675 690 517
1158 1241 1345 2080 64 289 74 387 74 767 0 302 -3 363 -22 487 -117 776 -439
1435 -967 1982 -493 509 -1114 856 -1805 1006 -254 55 -365 66 -690 69 -168 2
-325 2 -350 0z m520 -1144 c96 -32 425 -140 730 -240 1058 -348 1022 -335
1052 -371 40 -47 68 -202 93 -509 38 -461 1 -980 -101 -1398 -137 -565 -374
-1036 -727 -1448 -283 -329 -679 -629 -1102 -835 -170 -82 -179 -82 -345 -2
-348 169 -654 382 -917 637 -675 652 -1032 1576 -1033 2671 0 318 45 764 86
851 31 65 -43 38 1119 419 281 92 589 193 685 225 96 32 184 60 195 63 34 9
84 -3 265 -63z"/>
<path d="M3725 6120 c-11 -5 -270 -91 -575 -191 -1188 -389 -1307 -429 -1324
-448 -21 -23 -41 -128 -67 -351 -30 -250 -30 -709 0 -965 54 -476 163 -871
343 -1244 283 -588 721 -1053 1313 -1396 142 -82 336 -175 365 -175 28 0 197
80 330 155 1066 602 1653 1613 1710 2943 17 397 -31 973 -87 1034 -9 10 -227
87 -537 189 -548 180 -706 232 -1133 373 -256 84 -298 94 -338 76z m242 -219
c176 -58 1115 -367 1451 -477 105 -34 176 -63 181 -73 12 -23 39 -243 51 -406
25 -352 0 -770 -64 -1105 -172 -883 -622 -1580 -1321 -2044 -201 -135 -442
-266 -485 -266 -11 0 -53 16 -92 36 -619 312 -1092 762 -1381 1314 -269 513
-406 1108 -407 1762 0 264 39 691 66 718 5 5 66 28 134 50 409 134 1341 441
1485 490 94 32 178 58 187 59 10 0 97 -25 195 -58z"/>
<path d="M3286 4935 c-49 -17 -93 -59 -117 -110 -16 -35 -19 -67 -19 -267 0
-169 -3 -230 -12 -238 -7 -5 -38 -23 -68 -38 -62 -32 -114 -92 -130 -152 -7
-27 -10 -267 -8 -733 l3 -692 33 -52 c39 -60 94 -99 160 -113 30 -7 275 -10
682 -8 605 3 637 4 674 22 50 25 97 72 122 122 18 37 19 67 19 749 l0 710 -28
47 c-31 53 -73 89 -133 114 -21 9 -42 21 -46 28 -4 6 -8 112 -8 236 0 196 -3
230 -19 265 -23 51 -79 101 -128 114 -61 17 -928 14 -977 -4z m954 -181 c13
-34 13 -400 0 -425 -10 -18 -26 -19 -460 -19 -434 0 -450 1 -460 19 -13 25
-13 391 0 425 l10 26 450 0 450 0 10 -26z m195 -631 c9 -9 21 -27 26 -40 5
-14 9 -299 9 -659 0 -677 -1 -688 -48 -713 -14 -8 -217 -11 -646 -11 l-625 0
-28 24 -28 24 -3 644 c-2 353 0 657 3 674 3 17 14 40 26 52 l20 22 639 0 c581
0 640 -1 655 -17z"/>
<path d="M3693 3951 c-51 -13 -118 -57 -162 -107 -97 -110 -108 -272 -26 -395
23 -36 24 -43 27 -279 l3 -242 28 -24 c28 -24 32 -24 217 -24 185 0 189 0 217
24 l28 24 3 242 c3 236 4 243 27 279 107 162 50 380 -125 475 -41 22 -67 29
-128 32 -42 2 -91 0 -109 -5z m168 -177 c35 -18 69 -66 79 -111 11 -47 -10
-114 -49 -158 l-31 -36 0 -194 c0 -106 -3 -200 -6 -209 -9 -23 -139 -23 -148
0 -3 9 -6 103 -6 209 l0 193 -35 42 c-45 53 -59 106 -45 160 28 106 143 155
241 104z"/>
</g>
</svg>
